<?xml version="1.0" encoding="UTF-8" standalone="no"?>
<!DOCTYPE svg PUBLIC "-//W3C//DTD SVG 1.1//EN"
 "http://www.w3.org/Graphics/SVG/1.1/DTD/svg11.dtd">
<!-- Generated by graphviz version 2.43.0 (0)
 -->
<!-- Title: api_v0_3 Pages: 1 -->
<svg width="1427pt" height="541pt"
 viewBox="0.00 0.00 1426.99 541.00" xmlns="http://www.w3.org/2000/svg" xmlns:xlink="http://www.w3.org/1999/xlink">
<g id="graph0" class="graph" transform="scale(1 1) rotate(0) translate(4 537)">
<title>api_v0_3</title>
<polygon fill="white" stroke="transparent" points="-4,4 -4,-537 1422.99,-537 1422.99,4 -4,4"/>
<g id="clust1" class="cluster">
<title>cluster_smqtk</title>
<polygon fill="none" stroke="black" points="8,-197 8,-326 347.27,-326 347.27,-197 8,-197"/>
<text text-anchor="middle" x="96" y="-310.8" font-family="Times,serif" font-size="14.00">Package: SMQTK&#45;Core</text>
</g>
<g id="clust2" class="cluster">
<title>cluster_nrtk</title>
<polygon fill="none" stroke="black" points="355.27,-44 355.27,-525 1410.99,-525 1410.99,-44 355.27,-44"/>
<text text-anchor="middle" x="412.27" y="-509.8" font-family="Times,serif" font-size="14.00">Package: nrtk</text>
</g>
<g id="clust3" class="cluster">
<title>cluster_interfaces</title>
<polygon fill="none" stroke="black" points="363.27,-52 363.27,-494 1131.91,-494 1131.91,-52 363.27,-52"/>
<text text-anchor="middle" x="440.27" y="-478.8" font-family="Times,serif" font-size="14.00">Abstract Interfaces</text>
</g>
<g id="clust4" class="cluster">
<title>cluster_perturb</title>
<polygon fill="none" stroke="black" points="786.84,-334 786.84,-463 1023.82,-463 1023.82,-334 786.84,-334"/>
<text text-anchor="middle" x="840.34" y="-447.8" font-family="Times,serif" font-size="14.00">Perturbation</text>
</g>
<g id="clust5" class="cluster">
<title>cluster_generation</title>
<polygon fill="none" stroke="black" points="371.27,-197 371.27,-326 1123.91,-326 1123.91,-197 371.27,-197"/>
<text text-anchor="middle" x="518.77" y="-310.8" font-family="Times,serif" font-size="14.00">Item&#45;Response Curve (IRC) Generation</text>
</g>
<g id="clust6" class="cluster">
<title>cluster_scoring</title>
<polygon fill="none" stroke="black" points="793.34,-60 793.34,-189 1017.32,-189 1017.32,-60 793.34,-60"/>
<text text-anchor="middle" x="828.84" y="-173.8" font-family="Times,serif" font-size="14.00">Scoring</text>
</g>
<g id="clust7" class="cluster">
<title>cluster_impls</title>
<polygon fill="none" stroke="black" points="1143.91,-197 1143.91,-272 1402.99,-272 1402.99,-197 1143.91,-197"/>
<text text-anchor="middle" x="1245.91" y="-256.8" font-family="Times,serif" font-size="14.00">Implementation Examples</text>
</g>
<!-- A -->
<!-- B -->
<!-- A&#45;&gt;B -->
<!-- C -->
<!-- B&#45;&gt;C -->
<!-- D -->
<!-- C&#45;&gt;D -->
<!-- E -->
<!-- D&#45;&gt;E -->
<!-- Pluggable -->
<g id="node6" class="node">
<title>Pluggable</title>
<ellipse fill="none" stroke="black" cx="86.19" cy="-277" rx="57.39" ry="18"/>
<text text-anchor="middle" x="86.19" y="-273.3" font-family="Times,serif" font-size="14.00">Pluggable</text>
</g>
<!-- Plugfigurable -->
<g id="node7" class="node">
<title>Plugfigurable</title>
<ellipse fill="none" stroke="black" cx="265.83" cy="-250" rx="73.39" ry="18"/>
<text text-anchor="middle" x="265.83" y="-246.3" font-family="Times,serif" font-size="14.00">Plugfigurable</text>
</g>
<!-- Pluggable&#45;&gt;Plugfigurable -->
<g id="edge5" class="edge">
<title>Pluggable&#45;&gt;Plugfigurable</title>
<path fill="none" stroke="black" d="M148.27,-267.72C165.92,-265.03 185.18,-262.11 202.88,-259.42"/>
<polygon fill="none" stroke="black" points="147.46,-264.3 138.1,-269.26 148.51,-271.22 147.46,-264.3"/>
</g>
<!-- PerturbImage -->
<g id="node9" class="node">
<title>PerturbImage</title>
<ellipse fill="none" stroke="black" cx="905.33" cy="-414" rx="75.29" ry="18"/>
<text text-anchor="middle" x="905.33" y="-410.3" font-family="Times,serif" font-size="14.00">PerturbImage</text>
</g>
<!-- Plugfigurable&#45;&gt;PerturbImage -->
<g id="edge7" class="edge">
<title>Plugfigurable&#45;&gt;PerturbImage</title>
<path fill="none" stroke="black" d="M278.66,-277.28C292.54,-305.6 318.43,-348.55 355.27,-369 513.32,-456.73 737.27,-439.45 843.67,-424.39"/>
<polygon fill="none" stroke="black" points="281.69,-275.49 274.26,-267.93 275.36,-278.47 281.69,-275.49"/>
</g>
<!-- PerturbImageFactory -->
<g id="node10" class="node">
<title>PerturbImageFactory</title>
<ellipse fill="none" stroke="black" cx="905.33" cy="-360" rx="110.48" ry="18"/>
<text text-anchor="middle" x="905.33" y="-356.3" font-family="Times,serif" font-size="14.00">PerturbImageFactory</text>
</g>
<!-- Plugfigurable&#45;&gt;PerturbImageFactory -->
<g id="edge8" class="edge">
<title>Plugfigurable&#45;&gt;PerturbImageFactory</title>
<path fill="none" stroke="black" d="M286.8,-275.72C303.01,-294.45 327.64,-318.48 355.27,-330 510.36,-394.65 711.72,-384.58 822.42,-371.98"/>
<polygon fill="none" stroke="black" points="289.28,-273.23 280.18,-267.81 283.91,-277.72 289.28,-273.23"/>
</g>
<!-- GenerateBlackboxResponse -->
<g id="node11" class="node">
<title>GenerateBlackboxResponse</title>
<ellipse fill="none" stroke="black" cx="519.01" cy="-250" rx="139.98" ry="18"/>
<text text-anchor="middle" x="519.01" y="-246.3" font-family="Times,serif" font-size="14.00">GenerateBlackboxResponse</text>
</g>
<!-- Plugfigurable&#45;&gt;GenerateBlackboxResponse -->
<g id="edge9" class="edge">
<title>Plugfigurable&#45;&gt;GenerateBlackboxResponse</title>
<path fill="none" stroke="black" d="M349.7,-250C359.26,-250 369.2,-250 379.25,-250"/>
<polygon fill="none" stroke="black" points="349.48,-246.5 339.48,-250 349.48,-253.5 349.48,-246.5"/>
</g>
<!-- ScoreDetections -->
<g id="node12" class="node">
<title>ScoreDetections</title>
<ellipse fill="none" stroke="black" cx="905.33" cy="-140" rx="87.18" ry="18"/>
<text text-anchor="middle" x="905.33" y="-136.3" font-family="Times,serif" font-size="14.00">ScoreDetections</text>
</g>
<!-- Plugfigurable&#45;&gt;ScoreDetections -->
<g id="edge10" class="edge">
<title>Plugfigurable&#45;&gt;ScoreDetections</title>
<path fill="none" stroke="black" d="M295.59,-226.44C312.05,-214.3 333.67,-200.5 355.27,-193 512.9,-138.24 710.33,-133.47 820.34,-136.01"/>
<polygon fill="none" stroke="black" points="293.33,-223.76 287.48,-232.59 297.56,-229.33 293.33,-223.76"/>
</g>
<!-- ScoreClassifications -->
<g id="node13" class="node">
<title>ScoreClassifications</title>
<ellipse fill="none" stroke="black" cx="905.33" cy="-86" rx="103.98" ry="18"/>
<text text-anchor="middle" x="905.33" y="-82.3" font-family="Times,serif" font-size="14.00">ScoreClassifications</text>
</g>
<!-- Plugfigurable&#45;&gt;ScoreClassifications -->
<g id="edge11" class="edge">
<title>Plugfigurable&#45;&gt;ScoreClassifications</title>
<path fill="none" stroke="black" d="M279.4,-222.77C293.62,-195.43 319.53,-154.63 355.27,-135 505.44,-52.56 714.04,-61.45 825.95,-74.26"/>
<polygon fill="none" stroke="black" points="276.22,-221.31 274.87,-231.82 282.48,-224.45 276.22,-221.31"/>
</g>
<!-- Configurable -->
<g id="node8" class="node">
<title>Configurable</title>
<ellipse fill="none" stroke="black" cx="86.19" cy="-223" rx="70.39" ry="18"/>
<text text-anchor="middle" x="86.19" y="-219.3" font-family="Times,serif" font-size="14.00">Configurable</text>
</g>
<!-- Configurable&#45;&gt;Plugfigurable -->
<g id="edge6" class="edge">
<title>Configurable&#45;&gt;Plugfigurable</title>
<path fill="none" stroke="black" d="M157.15,-233.63C172.27,-235.93 188.14,-238.34 202.92,-240.59"/>
<polygon fill="none" stroke="black" points="157.25,-230.11 146.84,-232.07 156.2,-237.03 157.25,-230.11"/>
</g>
<!-- PerturbImageFactory&#45;&gt;PerturbImage -->
<g id="edge12" class="edge">
<title>PerturbImageFactory&#45;&gt;PerturbImage</title>
<path fill="none" stroke="black" d="M905.33,-390.27C905.33,-392.11 905.33,-393.95 905.33,-395.79"/>
<polygon fill="black" stroke="black" points="905.33,-390.14 901.33,-384.14 905.33,-378.14 909.33,-384.14 905.33,-390.14"/>
</g>
<!-- GenerateObjectDetectorBlackboxResponse -->
<g id="node14" class="node">
<title>GenerateObjectDetectorBlackboxResponse</title>
<ellipse fill="none" stroke="black" cx="905.33" cy="-223" rx="210.66" ry="18"/>
<text text-anchor="middle" x="905.33" y="-219.3" font-family="Times,serif" font-size="14.00">GenerateObjectDetectorBlackboxResponse</text>
</g>
<!-- GenerateBlackboxResponse&#45;&gt;GenerateObjectDetectorBlackboxResponse -->
<g id="edge13" class="edge">
<title>GenerateBlackboxResponse&#45;&gt;GenerateObjectDetectorBlackboxResponse</title>
<path fill="none" stroke="black" d="M652.28,-240.71C681.21,-238.68 712.15,-236.5 742.09,-234.4"/>
<polygon fill="none" stroke="black" points="651.87,-237.23 642.14,-241.42 652.36,-244.21 651.87,-237.23"/>
</g>
<!-- GenerateClassifierBlackboxResponse -->
<g id="node15" class="node">
<title>GenerateClassifierBlackboxResponse</title>
<ellipse fill="none" stroke="black" cx="905.33" cy="-277" rx="183.07" ry="18"/>
<text text-anchor="middle" x="905.33" y="-273.3" font-family="Times,serif" font-size="14.00">GenerateClassifierBlackboxResponse</text>
</g>
<!-- GenerateBlackboxResponse&#45;&gt;GenerateClassifierBlackboxResponse -->
<g id="edge14" class="edge">
<title>GenerateBlackboxResponse&#45;&gt;GenerateClassifierBlackboxResponse</title>
<path fill="none" stroke="black" d="M652.41,-259.3C685.77,-261.65 721.81,-264.18 755.91,-266.57"/>
<polygon fill="none" stroke="black" points="652.36,-255.79 642.14,-258.58 651.87,-262.77 652.36,-255.79"/>
</g>
<!-- SimplePybsmGenerator -->
<g id="node16" class="node">
<title>SimplePybsmGenerator</title>
<ellipse fill="none" stroke="black" cx="1273.45" cy="-223" rx="121.58" ry="18"/>
<text text-anchor="middle" x="1273.45" y="-219.3" font-family="Times,serif" font-size="14.00">SimplePybsmGenerator</text>
</g>
<!-- GenerateObjectDetectorBlackboxResponse&#45;&gt;SimplePybsmGenerator -->
<g id="edge15" class="edge">
<title>GenerateObjectDetectorBlackboxResponse&#45;&gt;SimplePybsmGenerator</title>
<path fill="none" stroke="black" d="M1126.32,-223C1134.97,-223 1143.51,-223 1151.85,-223"/>
<polygon fill="none" stroke="black" points="1126.12,-219.5 1116.12,-223 1126.12,-226.5 1126.12,-219.5"/>
</g>
<!-- SimplePybsmGenerator&#45;&gt;PerturbImageFactory -->
<g id="edge16" class="edge">
<title>SimplePybsmGenerator&#45;&gt;PerturbImageFactory</title>
<path fill="none" stroke="black" d="M1246.39,-249.65C1220.03,-274.84 1176.85,-311.45 1131.91,-330 1095.21,-345.15 1052.56,-353.03 1014.29,-357.01"/>
<polygon fill="none" stroke="black" points="1246.72,-249.33 1248.23,-242.27 1255.31,-240.95 1253.81,-248 1246.72,-249.33"/>
</g>
<!-- SimplePybsmGenerator&#45;&gt;ScoreDetections -->
<g id="edge17" class="edge">
<title>SimplePybsmGenerator&#45;&gt;ScoreDetections</title>
<path fill="none" stroke="black" d="M1194.13,-205.25C1125.35,-189.65 1026.84,-167.32 964.75,-153.24"/>
<polygon fill="none" stroke="black" points="1194.48,-205.32 1201.22,-202.75 1206.19,-207.98 1199.45,-210.55 1194.48,-205.32"/>
</g>
</g>
</svg>
