<?xml version="1.0" encoding="UTF-8" standalone="no"?>
<!DOCTYPE svg PUBLIC "-//W3C//DTD SVG 1.1//EN"
 "http://www.w3.org/Graphics/SVG/1.1/DTD/svg11.dtd">
<!-- Generated by graphviz version 2.43.0 (0)
 -->
<!-- Title: api_v0_3 Pages: 1 -->
<svg width="640pt" height="268pt"
 viewBox="0.00 0.00 640.25 268.00" xmlns="http://www.w3.org/2000/svg" xmlns:xlink="http://www.w3.org/1999/xlink">
<g id="graph0" class="graph" transform="scale(1 1) rotate(0) translate(4 264)">
<title>api_v0_3</title>
<polygon fill="white" stroke="transparent" points="-4,4 -4,-264 636.25,-264 636.25,4 -4,4"/>
<g id="clust1" class="cluster">
<title>cluster_smqtk</title>
<polygon fill="none" stroke="black" points="8,-53 8,-182 347.27,-182 347.27,-53 8,-53"/>
<text text-anchor="middle" x="96" y="-166.8" font-family="Times,serif" font-size="14.00">Package: SMQTK&#45;Core</text>
</g>
<g id="clust2" class="cluster">
<title>cluster_nrtk</title>
<polygon fill="none" stroke="black" points="355.27,-45 355.27,-252 624.25,-252 624.25,-45 355.27,-45"/>
<text text-anchor="middle" x="412.27" y="-236.8" font-family="Times,serif" font-size="14.00">Package: nrtk</text>
</g>
<g id="clust3" class="cluster">
<title>cluster_interfaces</title>
<polygon fill="none" stroke="black" points="363.27,-53 363.27,-221 616.25,-221 616.25,-53 363.27,-53"/>
<text text-anchor="middle" x="440.27" y="-205.8" font-family="Times,serif" font-size="14.00">Abstract Interfaces</text>
</g>
<g id="clust4" class="cluster">
<title>cluster_perturb</title>
<polygon fill="none" stroke="black" points="371.27,-61 371.27,-190 608.25,-190 608.25,-61 371.27,-61"/>
<text text-anchor="middle" x="424.77" y="-174.8" font-family="Times,serif" font-size="14.00">Perturbation</text>
</g>
<!-- A -->
<!-- B -->
<!-- A&#45;&gt;B -->
<!-- C -->
<!-- B&#45;&gt;C -->
<!-- Pluggable -->
<g id="node4" class="node">
<title>Pluggable</title>
<ellipse fill="none" stroke="black" cx="86.19" cy="-133" rx="57.39" ry="18"/>
<text text-anchor="middle" x="86.19" y="-129.3" font-family="Times,serif" font-size="14.00">Pluggable</text>
</g>
<!-- Plugfigurable -->
<g id="node5" class="node">
<title>Plugfigurable</title>
<ellipse fill="none" stroke="black" cx="265.83" cy="-110" rx="73.39" ry="18"/>
<text text-anchor="middle" x="265.83" y="-106.3" font-family="Times,serif" font-size="14.00">Plugfigurable</text>
</g>
<!-- Pluggable&#45;&gt;Plugfigurable -->
<g id="edge3" class="edge">
<title>Pluggable&#45;&gt;Plugfigurable</title>
<path fill="none" stroke="black" d="M149.62,-124.92C166.13,-122.78 183.99,-120.47 200.6,-118.32"/>
<polygon fill="none" stroke="black" points="149,-121.47 139.53,-126.22 149.9,-128.41 149,-121.47"/>
</g>
<!-- PerturbImage -->
<g id="node7" class="node">
<title>PerturbImage</title>
<ellipse fill="none" stroke="black" cx="489.76" cy="-141" rx="75.29" ry="18"/>
<text text-anchor="middle" x="489.76" y="-137.3" font-family="Times,serif" font-size="14.00">PerturbImage</text>
</g>
<!-- Plugfigurable&#45;&gt;PerturbImage -->
<g id="edge5" class="edge">
<title>Plugfigurable&#45;&gt;PerturbImage</title>
<path fill="none" stroke="black" d="M340.34,-120.27C367.46,-124.06 397.96,-128.32 424.22,-131.98"/>
<polygon fill="none" stroke="black" points="340.52,-116.76 330.13,-118.84 339.55,-123.69 340.52,-116.76"/>
</g>
<!-- PerturbImageFactory -->
<g id="node8" class="node">
<title>PerturbImageFactory</title>
<ellipse fill="none" stroke="black" cx="489.76" cy="-87" rx="110.48" ry="18"/>
<text text-anchor="middle" x="489.76" y="-83.3" font-family="Times,serif" font-size="14.00">PerturbImageFactory</text>
</g>
<!-- Plugfigurable&#45;&gt;PerturbImageFactory -->
<g id="edge6" class="edge">
<title>Plugfigurable&#45;&gt;PerturbImageFactory</title>
<path fill="none" stroke="black" d="M344.03,-102C360.86,-100.26 378.83,-98.39 396.19,-96.59"/>
<polygon fill="none" stroke="black" points="343.31,-98.56 333.72,-103.07 344.03,-105.52 343.31,-98.56"/>
</g>
<!-- Configurable -->
<g id="node6" class="node">
<title>Configurable</title>
<ellipse fill="none" stroke="black" cx="86.19" cy="-79" rx="70.39" ry="18"/>
<text text-anchor="middle" x="86.19" y="-75.3" font-family="Times,serif" font-size="14.00">Configurable</text>
</g>
<!-- Configurable&#45;&gt;Plugfigurable -->
<g id="edge4" class="edge">
<title>Configurable&#45;&gt;Plugfigurable</title>
<path fill="none" stroke="black" d="M155.08,-90.85C171.72,-93.75 189.41,-96.84 205.62,-99.67"/>
<polygon fill="none" stroke="black" points="155.32,-87.34 144.87,-89.06 154.12,-94.23 155.32,-87.34"/>
</g>
<!-- PerturbImageFactory&#45;&gt;PerturbImage -->
<g id="edge7" class="edge">
<title>PerturbImageFactory&#45;&gt;PerturbImage</title>
<path fill="none" stroke="black" d="M489.76,-117.27C489.76,-119.11 489.76,-120.95 489.76,-122.79"/>
<polygon fill="black" stroke="black" points="489.76,-117.14 485.76,-111.14 489.76,-105.14 493.76,-111.14 489.76,-117.14"/>
</g>
</g>
</svg>
